<svg width="98" height="98" viewBox="0 0 98 98" fill="none" xmlns="http://www.w3.org/2000/svg">
<path d="M108 -117L215 -10.0001L108 96.9999C108 96.9999 89.5 53.5 59 38C28.5 22.5 1.00006 -10.0001 1.00006 -10.0001L108 -117Z" fill="#F5453D"/>
<path d="M90.4829 -122L195.258 -42.5009L109.862 70.0464C109.862 70.0464 66.3413 41.9968 78.3694 8.85935C90.3975 -24.2781 90.4829 -122 90.4829 -122Z" fill="#F54F47"/>
<path d="M46.3658 9.21933C35.2313 2.74691 30.0002 8.49859 24.4245 1.96651C16.3204 -7.5277 26.0431 -15.393 27.3919 -29.8593C34.3768 -35.6268 48.5338 -28.4045 54.3268 -21.3888C67.5003 -12.6801 57.5002 15.6917 46.3658 9.21933Z" fill="#F65D55"/>
</svg>
